<svg width="20" height="16" viewBox="0 0 20 16" fill="none" xmlns="http://www.w3.org/2000/svg">
<path fill-rule="evenodd" clip-rule="evenodd" d="M13.0002 0C14.3062 0 15.4182 0.835 15.8302 2H7.00024C5.67416 2 4.40239 2.52678 3.46471 3.46447C2.52703 4.40215 2.00024 5.67392 2.00024 7V11.83C1.41517 11.623 0.908665 11.2397 0.550484 10.7329C0.192303 10.226 6.52125e-05 9.62062 0.000244266 9V3C0.000244266 2.20435 0.316315 1.44129 0.878924 0.87868C1.44153 0.316071 2.20459 0 3.00024 0H13.0002ZM17.0002 4H7.00024C6.20459 4 5.44153 4.31607 4.87892 4.87868C4.31631 5.44129 4.00024 6.20435 4.00024 7V13C4.00024 13.7956 4.31631 14.5587 4.87892 15.1213C5.44153 15.6839 6.20459 16 7.00024 16H17.0002C17.7959 16 18.559 15.6839 19.1216 15.1213C19.6842 14.5587 20.0002 13.7956 20.0002 13V7C20.0002 6.20435 19.6842 5.44129 19.1216 4.87868C18.559 4.31607 17.7959 4 17.0002 4ZM14.0002 10C14.0002 10.5304 13.7895 11.0391 13.4145 11.4142C13.0394 11.7893 12.5307 12 12.0002 12C11.4698 12 10.9611 11.7893 10.586 11.4142C10.211 11.0391 10.0002 10.5304 10.0002 10C10.0002 9.46957 10.211 8.96086 10.586 8.58579C10.9611 8.21071 11.4698 8 12.0002 8C12.5307 8 13.0394 8.21071 13.4145 8.58579C13.7895 8.96086 14.0002 9.46957 14.0002 10Z" fill="white"/>
</svg>
