<svg width="20" height="20" viewBox="0 0 20 20" fill="none" xmlns="http://www.w3.org/2000/svg">
<path d="M0.333252 9.99992C0.333252 8.73047 0.583288 7.47346 1.06908 6.30065C1.55488 5.12783 2.26692 4.06219 3.16455 3.16455C4.06219 2.26692 5.12783 1.55488 6.30065 1.06908C7.47346 0.583288 8.73047 0.333252 9.99992 0.333252C11.2694 0.333252 12.5264 0.583288 13.6992 1.06908C14.872 1.55488 15.9377 2.26692 16.8353 3.16455C17.7329 4.06219 18.445 5.12783 18.9308 6.30065C19.4165 7.47346 19.6666 8.73047 19.6666 9.99992C19.6666 12.5637 18.6481 15.0224 16.8353 16.8353C15.0224 18.6481 12.5637 19.6666 9.99992 19.6666C7.43616 19.6666 4.9774 18.6481 3.16455 16.8353C1.3517 15.0224 0.333252 12.5637 0.333252 9.99992ZM9.99992 5.16659C9.78627 5.16659 9.58138 5.25146 9.43031 5.40253C9.27923 5.5536 9.19436 5.75849 9.19436 5.97214V9.19436H5.97214C5.75849 9.19436 5.5536 9.27923 5.40253 9.43031C5.25146 9.58138 5.16659 9.78627 5.16659 9.99992C5.16659 10.2136 5.25146 10.4185 5.40253 10.5695C5.5536 10.7206 5.75849 10.8055 5.97214 10.8055H9.19436V14.0277C9.19436 14.2413 9.27923 14.4462 9.43031 14.5973C9.58138 14.7484 9.78627 14.8333 9.99992 14.8333C10.2136 14.8333 10.4185 14.7484 10.5695 14.5973C10.7206 14.4462 10.8055 14.2413 10.8055 14.0277V10.8055H14.0277C14.2413 10.8055 14.4462 10.7206 14.5973 10.5695C14.7484 10.4185 14.8333 10.2136 14.8333 9.99992C14.8333 9.78627 14.7484 9.58138 14.5973 9.43031C14.4462 9.27923 14.2413 9.19436 14.0277 9.19436H10.8055V5.97214C10.8055 5.75849 10.7206 5.5536 10.5695 5.40253C10.4185 5.25146 10.2136 5.16659 9.99992 5.16659Z" fill="white"/>
</svg>
