<svg width="28" height="28" viewBox="0 0 28 28" fill="none" xmlns="http://www.w3.org/2000/svg">
<rect x="0.25" y="0.25" width="27.5" height="27.5" rx="7.75" stroke="#707070" stroke-width="0.5"/>
<path d="M21.7001 9.24183L18.7788 6.30042C18.5858 6.10801 18.3245 6 18.0522 6C17.7799 6 17.5187 6.10801 17.3256 6.30042L6.96923 16.6602L6.02366 20.7482C5.99104 20.8977 5.99216 21.0525 6.02694 21.2015C6.06171 21.3504 6.12926 21.4897 6.22465 21.6092C6.32004 21.7286 6.44087 21.8252 6.5783 21.8919C6.71573 21.9586 6.86629 21.9937 7.01899 21.9946C7.09014 22.0018 7.16184 22.0018 7.23299 21.9946L11.3586 21.0474L21.7001 10.6976C21.8922 10.5042 22 10.2425 22 9.9697C22 9.69691 21.8922 9.43521 21.7001 9.24183ZM10.861 20.15L6.99411 20.9626L7.87498 17.1637L15.6236 9.43128L18.6096 12.4225L10.861 20.15ZM19.2765 11.6997L16.2905 8.70839L18.0224 6.98342L20.9586 9.97469L19.2765 11.6997Z" fill="#707070"/>
</svg>
