<svg width="18" height="20" viewBox="0 0 18 20" fill="none" xmlns="http://www.w3.org/2000/svg">
    <path
        d="M7.803 0.927417C8.14062 0.65087 8.56358 0.499756 9 0.499756C9.43643 0.499756 9.85939 0.65087 10.197 0.927417L16.7845 6.29842C17.0087 6.48219 17.1891 6.7135 17.3129 6.97561C17.4366 7.23772 17.5005 7.52407 17.5 7.81392V17.5564C17.5 18.6299 16.644 19.4999 15.5875 19.4999H13.0375C11.981 19.4999 11.125 18.6299 11.125 17.5564V12.8749C11.125 12.5174 10.84 12.2274 10.4875 12.2274H7.5125C7.1605 12.2274 6.875 12.5174 6.875 12.8749V17.5569C6.875 18.6304 6.019 19.5004 4.9625 19.5004H2.4125C1.3565 19.4999 0.500003 18.6299 0.500003 17.5564V7.81392C0.499461 7.52407 0.563378 7.23772 0.687125 6.97561C0.810872 6.7135 0.991354 6.48219 1.2155 6.29842L7.803 0.927417Z"
        fill="#C7C7C7" />
</svg>