<svg width="19" height="19" viewBox="0 0 19 19" fill="none" xmlns="http://www.w3.org/2000/svg">
    <path
        d="M0.3125 2.28125C0.3125 1.75911 0.519921 1.25835 0.889134 0.889134C1.25835 0.519921 1.75911 0.3125 2.28125 0.3125H6.21875C6.74089 0.3125 7.24165 0.519921 7.61087 0.889134C7.98008 1.25835 8.1875 1.75911 8.1875 2.28125V6.21875C8.1875 6.74089 7.98008 7.24165 7.61087 7.61087C7.24165 7.98008 6.74089 8.1875 6.21875 8.1875H2.28125C1.75911 8.1875 1.25835 7.98008 0.889134 7.61087C0.519921 7.24165 0.3125 6.74089 0.3125 6.21875V2.28125ZM10.8125 2.28125C10.8125 1.75911 11.0199 1.25835 11.3891 0.889134C11.7583 0.519921 12.2591 0.3125 12.7812 0.3125H16.7188C17.2409 0.3125 17.7417 0.519921 18.1109 0.889134C18.4801 1.25835 18.6875 1.75911 18.6875 2.28125V6.21875C18.6875 6.74089 18.4801 7.24165 18.1109 7.61087C17.7417 7.98008 17.2409 8.1875 16.7188 8.1875H12.7812C12.2591 8.1875 11.7583 7.98008 11.3891 7.61087C11.0199 7.24165 10.8125 6.74089 10.8125 6.21875V2.28125ZM0.3125 12.7812C0.3125 12.2591 0.519921 11.7583 0.889134 11.3891C1.25835 11.0199 1.75911 10.8125 2.28125 10.8125H6.21875C6.74089 10.8125 7.24165 11.0199 7.61087 11.3891C7.98008 11.7583 8.1875 12.2591 8.1875 12.7812V16.7188C8.1875 17.2409 7.98008 17.7417 7.61087 18.1109C7.24165 18.4801 6.74089 18.6875 6.21875 18.6875H2.28125C1.75911 18.6875 1.25835 18.4801 0.889134 18.1109C0.519921 17.7417 0.3125 17.2409 0.3125 16.7188V12.7812ZM10.8125 12.7812C10.8125 12.2591 11.0199 11.7583 11.3891 11.3891C11.7583 11.0199 12.2591 10.8125 12.7812 10.8125H16.7188C17.2409 10.8125 17.7417 11.0199 18.1109 11.3891C18.4801 11.7583 18.6875 12.2591 18.6875 12.7812V16.7188C18.6875 17.2409 18.4801 17.7417 18.1109 18.1109C17.7417 18.4801 17.2409 18.6875 16.7188 18.6875H12.7812C12.2591 18.6875 11.7583 18.4801 11.3891 18.1109C11.0199 17.7417 10.8125 17.2409 10.8125 16.7188V12.7812Z"
        fill="#C7C7C7" />
</svg>