<svg width="27" height="27" viewBox="0 0 27 27" fill="none" xmlns="http://www.w3.org/2000/svg">
<path d="M21.9375 25.3125H20.25V22.7812C20.2487 21.6628 19.8038 20.5905 19.0129 19.7996C18.222 19.0087 17.1497 18.5638 16.0312 18.5625H10.9688C9.85028 18.5638 8.778 19.0087 7.98712 19.7996C7.19624 20.5905 6.75134 21.6628 6.75 22.7812V25.3125H5.0625V22.7812C5.06429 21.2154 5.68712 19.7141 6.79437 18.6069C7.90162 17.4996 9.40286 16.8768 10.9688 16.875H16.0312C17.5971 16.8768 19.0984 17.4996 20.2056 18.6069C21.3129 19.7141 21.9357 21.2154 21.9375 22.7812V25.3125Z" fill="black"/>
<path d="M4.21875 5.0625C3.99497 5.0625 3.78036 5.15139 3.62213 5.30963C3.46389 5.46786 3.375 5.68247 3.375 5.90625V13.5H5.0625V5.90625C5.0625 5.68247 4.97361 5.46786 4.81537 5.30963C4.65714 5.15139 4.44253 5.0625 4.21875 5.0625Z" fill="black"/>
<path d="M3.375 1.6875V3.375H7.59375V9.28125C7.59375 10.8477 8.21601 12.35 9.32365 13.4576C10.4313 14.5652 11.9336 15.1875 13.5 15.1875C15.0664 15.1875 16.5687 14.5652 17.6763 13.4576C18.784 12.35 19.4062 10.8477 19.4062 9.28125V3.375H23.625V1.6875H3.375ZM9.28125 3.375H17.7188V5.90625H9.28125V3.375ZM13.5 13.5C12.3811 13.5 11.3081 13.0555 10.5169 12.2644C9.72572 11.4732 9.28125 10.4001 9.28125 9.28125V7.59375H17.7188V9.28125C17.7188 10.4001 17.2743 11.4732 16.4831 12.2644C15.6919 13.0555 14.6189 13.5 13.5 13.5Z" fill="black"/>
</svg>
