<svg width="24" height="24" viewBox="0 0 24 24" fill="none" xmlns="http://www.w3.org/2000/svg">
<path fill-rule="evenodd" clip-rule="evenodd" d="M3 17C3.00012 16.1131 3.29482 15.2514 3.83783 14.5502C4.38084 13.849 5.14138 13.3481 6 13.126L6 5L8 5L8 13.126C8.94049 13.3717 9.75939 13.9514 10.3038 14.7567C10.8482 15.562 11.0809 16.5379 10.9584 17.5022C10.836 18.4665 10.3667 19.3533 9.63828 19.997C8.90985 20.6406 7.97206 20.9972 7 21C5.93913 21 4.92172 20.5786 4.17157 19.8284C3.42143 19.0783 3 18.0609 3 17V17ZM9 17C9 16.4696 8.78929 15.9609 8.41421 15.5858C8.03914 15.2107 7.53043 15 7 15C6.46957 15 5.96086 15.2107 5.58579 15.5858C5.21071 15.9609 5 16.4696 5 17C5 17.5304 5.21071 18.0391 5.58579 18.4142C5.96086 18.7893 6.46957 19 7 19C7.53043 19 8.03914 18.7893 8.41421 18.4142C8.78929 18.0391 9 17.5304 9 17V17Z" fill="black"/>
<path fill-rule="evenodd" clip-rule="evenodd" d="M20 7C19.9999 7.88687 19.7052 8.74858 19.1621 9.44978C18.6191 10.151 17.8586 10.6519 17 10.874L17 19L15 19L15 10.874C14.0595 10.6283 13.2406 10.0486 12.6962 9.24333C12.1518 8.43802 11.9191 7.46209 12.0415 6.49778C12.164 5.53346 12.6333 4.64668 13.3617 4.00303C14.0901 3.35937 15.0279 3.00284 16 3C17.0608 3 18.0783 3.42143 18.8284 4.17157C19.5785 4.92172 20 5.93913 20 7ZM18 7C18 6.46957 17.7893 5.96086 17.4142 5.58579C17.0391 5.21071 16.5304 5 16 5C15.4695 5 14.9608 5.21071 14.5858 5.58579C14.2107 5.96086 14 6.46957 14 7C14 7.53043 14.2107 8.03914 14.5858 8.41421C14.9608 8.78929 15.4695 9 16 9C16.5304 9 17.0391 8.78929 17.4142 8.41421C17.7893 8.03914 18 7.53043 18 7V7Z" fill="black"/>
</svg>
